<mxfile host="app.diagrams.net" modified="2024-04-30T05:00:16.811Z" agent="Mozilla/5.0 (Macintosh; Intel Mac OS X 10_15_7) AppleWebKit/537.36 (KHTML, like Gecko) Chrome/124.0.0.0 Safari/537.36" etag="xJhnA-KCGLyERYxGLl1Q" version="24.3.1" type="device">
  <diagram id="C5RBs43oDa-KdzZeNtuy" name="Page-1">
    <mxGraphModel dx="1434" dy="756" grid="1" gridSize="10" guides="1" tooltips="1" connect="1" arrows="1" fold="1" page="1" pageScale="1" pageWidth="827" pageHeight="1169" math="0" shadow="0">
      <root>
        <mxCell id="WIyWlLk6GJQsqaUBKTNV-0" />
        <mxCell id="WIyWlLk6GJQsqaUBKTNV-1" parent="WIyWlLk6GJQsqaUBKTNV-0" />
        <mxCell id="aCYea00kqUyVw3IpIi2x-43" style="edgeStyle=orthogonalEdgeStyle;rounded=0;orthogonalLoop=1;jettySize=auto;html=1;exitX=0.5;exitY=1;exitDx=0;exitDy=0;entryX=0.5;entryY=0;entryDx=0;entryDy=0;" parent="WIyWlLk6GJQsqaUBKTNV-1" source="aCYea00kqUyVw3IpIi2x-0" target="aCYea00kqUyVw3IpIi2x-3" edge="1">
          <mxGeometry relative="1" as="geometry" />
        </mxCell>
        <mxCell id="aCYea00kqUyVw3IpIi2x-0" value="&lt;font style=&quot;font-size: 36px;&quot;&gt;시작&lt;/font&gt;" style="ellipse;whiteSpace=wrap;html=1;" parent="WIyWlLk6GJQsqaUBKTNV-1" vertex="1">
          <mxGeometry x="439" y="300" width="190" height="100" as="geometry" />
        </mxCell>
        <mxCell id="aCYea00kqUyVw3IpIi2x-6" value="" style="edgeStyle=orthogonalEdgeStyle;rounded=0;orthogonalLoop=1;jettySize=auto;html=1;" parent="WIyWlLk6GJQsqaUBKTNV-1" source="aCYea00kqUyVw3IpIi2x-3" target="aCYea00kqUyVw3IpIi2x-5" edge="1">
          <mxGeometry relative="1" as="geometry" />
        </mxCell>
        <mxCell id="aCYea00kqUyVw3IpIi2x-3" value="&lt;span style=&quot;font-size: 24px;&quot;&gt;height: 8&lt;/span&gt;" style="whiteSpace=wrap;html=1;" parent="WIyWlLk6GJQsqaUBKTNV-1" vertex="1">
          <mxGeometry x="386" y="470" width="296" height="110" as="geometry" />
        </mxCell>
        <mxCell id="aCYea00kqUyVw3IpIi2x-10" value="" style="edgeStyle=orthogonalEdgeStyle;rounded=0;orthogonalLoop=1;jettySize=auto;html=1;" parent="WIyWlLk6GJQsqaUBKTNV-1" source="aCYea00kqUyVw3IpIi2x-5" target="aCYea00kqUyVw3IpIi2x-9" edge="1">
          <mxGeometry relative="1" as="geometry" />
        </mxCell>
        <mxCell id="aCYea00kqUyVw3IpIi2x-5" value="&lt;font style=&quot;&quot;&gt;&lt;br&gt;&lt;font style=&quot;font-size: 36px;&quot;&gt;&quot;***********&quot;&lt;/font&gt;&lt;br&gt;&lt;/font&gt;&lt;div&gt;&lt;font style=&quot;&quot;&gt;&lt;font style=&quot;font-size: 24px;&quot;&gt;출력&lt;/font&gt;&lt;/font&gt;&lt;/div&gt;" style="whiteSpace=wrap;html=1;" parent="WIyWlLk6GJQsqaUBKTNV-1" vertex="1">
          <mxGeometry x="388" y="680" width="290" height="130" as="geometry" />
        </mxCell>
        <mxCell id="aCYea00kqUyVw3IpIi2x-13" value="" style="edgeStyle=orthogonalEdgeStyle;rounded=0;orthogonalLoop=1;jettySize=auto;html=1;" parent="WIyWlLk6GJQsqaUBKTNV-1" source="aCYea00kqUyVw3IpIi2x-9" target="aCYea00kqUyVw3IpIi2x-12" edge="1">
          <mxGeometry relative="1" as="geometry" />
        </mxCell>
        <mxCell id="aCYea00kqUyVw3IpIi2x-14" value="&lt;font style=&quot;font-size: 24px;&quot;&gt;Yes&lt;/font&gt;" style="edgeLabel;html=1;align=center;verticalAlign=middle;resizable=0;points=[];" parent="aCYea00kqUyVw3IpIi2x-13" vertex="1" connectable="0">
          <mxGeometry x="-0.3745" y="3" relative="1" as="geometry">
            <mxPoint x="-36" y="23" as="offset" />
          </mxGeometry>
        </mxCell>
        <mxCell id="aCYea00kqUyVw3IpIi2x-42" style="edgeStyle=orthogonalEdgeStyle;rounded=0;orthogonalLoop=1;jettySize=auto;html=1;exitX=1;exitY=0.5;exitDx=0;exitDy=0;" parent="WIyWlLk6GJQsqaUBKTNV-1" source="aCYea00kqUyVw3IpIi2x-9" target="m9TK_XecHZgxrx58RceM-0" edge="1">
          <mxGeometry relative="1" as="geometry">
            <mxPoint x="886" y="975" as="targetPoint" />
          </mxGeometry>
        </mxCell>
        <mxCell id="aCYea00kqUyVw3IpIi2x-47" value="&lt;font style=&quot;font-size: 24px;&quot;&gt;No&lt;/font&gt;" style="edgeLabel;html=1;align=center;verticalAlign=middle;resizable=0;points=[];" parent="aCYea00kqUyVw3IpIi2x-42" vertex="1" connectable="0">
          <mxGeometry x="-0.1029" y="5" relative="1" as="geometry">
            <mxPoint y="-20" as="offset" />
          </mxGeometry>
        </mxCell>
        <mxCell id="aCYea00kqUyVw3IpIi2x-9" value="&lt;div&gt;&lt;font style=&quot;font-size: 24px;&quot;&gt;_가 8&lt;/font&gt;&lt;span style=&quot;font-size: 24px; background-color: initial;&quot;&gt;보다&lt;/span&gt;&lt;/div&gt;&lt;div&gt;&lt;span style=&quot;font-size: 24px;&quot;&gt;작은가?&lt;/span&gt;&lt;/div&gt;" style="rhombus;whiteSpace=wrap;html=1;" parent="WIyWlLk6GJQsqaUBKTNV-1" vertex="1">
          <mxGeometry x="359" y="861" width="350" height="230" as="geometry" />
        </mxCell>
        <mxCell id="aCYea00kqUyVw3IpIi2x-28" style="edgeStyle=orthogonalEdgeStyle;rounded=0;orthogonalLoop=1;jettySize=auto;html=1;" parent="WIyWlLk6GJQsqaUBKTNV-1" source="aCYea00kqUyVw3IpIi2x-12" edge="1">
          <mxGeometry relative="1" as="geometry">
            <mxPoint x="534" y="630" as="targetPoint" />
            <Array as="points">
              <mxPoint x="240" y="1280" />
              <mxPoint x="240" y="630" />
            </Array>
          </mxGeometry>
        </mxCell>
        <mxCell id="aCYea00kqUyVw3IpIi2x-12" value="&lt;span style=&quot;background-color: initial;&quot;&gt;&lt;font style=&quot;font-size: 24px;&quot;&gt;_에&lt;/font&gt;&lt;/span&gt;&lt;div&gt;&lt;font style=&quot;font-size: 24px;&quot;&gt;1을 더한다.&lt;/font&gt;&lt;/div&gt;" style="whiteSpace=wrap;html=1;" parent="WIyWlLk6GJQsqaUBKTNV-1" vertex="1">
          <mxGeometry x="458" y="1240" width="150" height="85" as="geometry" />
        </mxCell>
        <mxCell id="aCYea00kqUyVw3IpIi2x-45" value="&lt;font style=&quot;font-size: 36px;&quot;&gt;끝&lt;/font&gt;" style="ellipse;whiteSpace=wrap;html=1;" parent="WIyWlLk6GJQsqaUBKTNV-1" vertex="1">
          <mxGeometry x="900" y="1539.5" width="154" height="110" as="geometry" />
        </mxCell>
        <mxCell id="m9TK_XecHZgxrx58RceM-2" value="" style="edgeStyle=orthogonalEdgeStyle;rounded=0;orthogonalLoop=1;jettySize=auto;html=1;" parent="WIyWlLk6GJQsqaUBKTNV-1" source="m9TK_XecHZgxrx58RceM-0" target="m9TK_XecHZgxrx58RceM-1" edge="1">
          <mxGeometry relative="1" as="geometry" />
        </mxCell>
        <mxCell id="m9TK_XecHZgxrx58RceM-0" value="&lt;font style=&quot;font-size: 24px;&quot;&gt;상수 stick 생성&lt;/font&gt;" style="rounded=0;whiteSpace=wrap;html=1;" parent="WIyWlLk6GJQsqaUBKTNV-1" vertex="1">
          <mxGeometry x="827" y="915.5" width="300" height="120" as="geometry" />
        </mxCell>
        <mxCell id="m9TK_XecHZgxrx58RceM-4" value="" style="edgeStyle=orthogonalEdgeStyle;rounded=0;orthogonalLoop=1;jettySize=auto;html=1;" parent="WIyWlLk6GJQsqaUBKTNV-1" source="m9TK_XecHZgxrx58RceM-1" target="m9TK_XecHZgxrx58RceM-3" edge="1">
          <mxGeometry relative="1" as="geometry" />
        </mxCell>
        <mxCell id="m9TK_XecHZgxrx58RceM-1" value="&lt;font style=&quot;font-size: 24px;&quot;&gt;&quot;&amp;nbsp; &amp;nbsp; | |&amp;nbsp; &amp;nbsp; \n&quot; 을 4회&amp;nbsp;&lt;/font&gt;&lt;div&gt;&lt;font style=&quot;font-size: 24px;&quot;&gt;반복한 문자열을 stick에 할당&lt;/font&gt;&lt;/div&gt;" style="rounded=0;whiteSpace=wrap;html=1;align=center;" parent="WIyWlLk6GJQsqaUBKTNV-1" vertex="1">
          <mxGeometry x="829" y="1119.5" width="296" height="120" as="geometry" />
        </mxCell>
        <mxCell id="m9TK_XecHZgxrx58RceM-5" style="edgeStyle=orthogonalEdgeStyle;rounded=0;orthogonalLoop=1;jettySize=auto;html=1;entryX=0.5;entryY=0;entryDx=0;entryDy=0;" parent="WIyWlLk6GJQsqaUBKTNV-1" source="m9TK_XecHZgxrx58RceM-3" target="aCYea00kqUyVw3IpIi2x-45" edge="1">
          <mxGeometry relative="1" as="geometry" />
        </mxCell>
        <mxCell id="m9TK_XecHZgxrx58RceM-3" value="&lt;font style=&quot;font-size: 24px;&quot;&gt;stick 출력&lt;/font&gt;" style="whiteSpace=wrap;html=1;rounded=0;" parent="WIyWlLk6GJQsqaUBKTNV-1" vertex="1">
          <mxGeometry x="881.5" y="1349.5" width="191" height="90" as="geometry" />
        </mxCell>
      </root>
    </mxGraphModel>
  </diagram>
</mxfile>
